<mxfile host="app.diagrams.net" agent="Mozilla/5.0 (Windows NT 10.0; Win64; x64) AppleWebKit/537.36 (KHTML, like Gecko) Chrome/129.0.0.0 Safari/537.36" version="24.8.0">
  <diagram name="Pagina-1" id="ktUSksA7A65I0feHBJkn">
    <mxGraphModel dx="1436" dy="893" grid="1" gridSize="10" guides="1" tooltips="1" connect="1" arrows="1" fold="1" page="1" pageScale="1" pageWidth="1169" pageHeight="827" math="0" shadow="0">
      <root>
        <mxCell id="0" />
        <mxCell id="1" parent="0" />
        <mxCell id="1_Ex-PggShJAfTCzqo_c-1" value="" style="ellipse;whiteSpace=wrap;html=1;aspect=fixed;strokeWidth=1;fillColor=#f5f5f5;strokeColor=#666666;fontColor=#333333;" parent="1" vertex="1">
          <mxGeometry x="910" y="450" width="40" height="40" as="geometry" />
        </mxCell>
        <mxCell id="1_Ex-PggShJAfTCzqo_c-2" value="" style="ellipse;whiteSpace=wrap;html=1;aspect=fixed;strokeWidth=1;fillColor=#f5f5f5;strokeColor=#666666;fontColor=#333333;" parent="1" vertex="1">
          <mxGeometry x="300" y="444.5" width="40" height="40" as="geometry" />
        </mxCell>
        <mxCell id="5B1q5VFgwYJrEZwWFQ1C-34" style="edgeStyle=orthogonalEdgeStyle;rounded=0;orthogonalLoop=1;jettySize=auto;html=1;exitX=1;exitY=0.5;exitDx=0;exitDy=0;entryX=0;entryY=0;entryDx=0;entryDy=0;dashed=1;startArrow=classic;startFill=1;endArrow=none;endFill=0;" edge="1" parent="1" source="1_Ex-PggShJAfTCzqo_c-3" target="1_Ex-PggShJAfTCzqo_c-1">
          <mxGeometry relative="1" as="geometry" />
        </mxCell>
        <mxCell id="5B1q5VFgwYJrEZwWFQ1C-36" value="" style="edgeStyle=orthogonalEdgeStyle;rounded=0;orthogonalLoop=1;jettySize=auto;html=1;" edge="1" parent="1" source="1_Ex-PggShJAfTCzqo_c-3" target="1_Ex-PggShJAfTCzqo_c-18">
          <mxGeometry relative="1" as="geometry" />
        </mxCell>
        <mxCell id="5B1q5VFgwYJrEZwWFQ1C-37" style="edgeStyle=orthogonalEdgeStyle;rounded=0;orthogonalLoop=1;jettySize=auto;html=1;entryX=1;entryY=0;entryDx=0;entryDy=0;dashed=1;" edge="1" parent="1" source="1_Ex-PggShJAfTCzqo_c-3" target="1_Ex-PggShJAfTCzqo_c-2">
          <mxGeometry relative="1" as="geometry">
            <Array as="points">
              <mxPoint x="430" y="500" />
              <mxPoint x="430" y="450" />
            </Array>
          </mxGeometry>
        </mxCell>
        <mxCell id="1_Ex-PggShJAfTCzqo_c-3" value="" style="rounded=0;whiteSpace=wrap;html=1;strokeColor=#6c8ebf;dashed=1;strokeWidth=2;fillColor=#dae8fc;" parent="1" vertex="1">
          <mxGeometry x="581.62" y="484.5" width="103" height="50" as="geometry" />
        </mxCell>
        <mxCell id="1_Ex-PggShJAfTCzqo_c-4" value="" style="rounded=0;whiteSpace=wrap;html=1;strokeColor=#6c8ebf;dashed=1;strokeWidth=2;fillColor=#dae8fc;" parent="1" vertex="1">
          <mxGeometry x="880" y="490" width="100" height="50" as="geometry" />
        </mxCell>
        <mxCell id="1_Ex-PggShJAfTCzqo_c-5" value="" style="rounded=0;whiteSpace=wrap;html=1;strokeColor=#6c8ebf;dashed=1;strokeWidth=2;fillColor=#dae8fc;" parent="1" vertex="1">
          <mxGeometry x="880.12" y="665" width="100" height="70" as="geometry" />
        </mxCell>
        <mxCell id="1_Ex-PggShJAfTCzqo_c-6" value="" style="rounded=0;whiteSpace=wrap;html=1;strokeColor=#6c8ebf;dashed=1;strokeWidth=2;fillColor=#dae8fc;" parent="1" vertex="1">
          <mxGeometry x="270" y="660.5" width="100" height="70" as="geometry" />
        </mxCell>
        <mxCell id="1_Ex-PggShJAfTCzqo_c-7" value="" style="rounded=0;whiteSpace=wrap;html=1;strokeColor=#6c8ebf;dashed=1;fillColor=#dae8fc;strokeWidth=2;" parent="1" vertex="1">
          <mxGeometry x="270" y="484.5" width="100" height="50" as="geometry" />
        </mxCell>
        <mxCell id="1_Ex-PggShJAfTCzqo_c-8" value="team-service" style="rounded=1;whiteSpace=wrap;html=1;fillColor=#d5e8d4;strokeColor=#82b366;" parent="1" vertex="1">
          <mxGeometry x="280" y="494.5" width="78" height="30" as="geometry" />
        </mxCell>
        <mxCell id="1_Ex-PggShJAfTCzqo_c-9" value="results-service" style="rounded=1;whiteSpace=wrap;html=1;fillColor=#d5e8d4;strokeColor=#82b366;" parent="1" vertex="1">
          <mxGeometry x="890" y="500" width="80" height="30" as="geometry" />
        </mxCell>
        <mxCell id="1_Ex-PggShJAfTCzqo_c-10" value="team-service" style="rounded=1;whiteSpace=wrap;html=1;fillColor=#f5f5f5;strokeColor=#666666;fontColor=#333333;" parent="1" vertex="1">
          <mxGeometry x="220" y="464.5" width="200" height="20" as="geometry" />
        </mxCell>
        <mxCell id="1_Ex-PggShJAfTCzqo_c-11" value="results-service" style="rounded=1;whiteSpace=wrap;html=1;fillColor=#f5f5f5;strokeColor=#666666;fontColor=#333333;" parent="1" vertex="1">
          <mxGeometry x="830" y="470" width="200" height="20" as="geometry" />
        </mxCell>
        <mxCell id="1_Ex-PggShJAfTCzqo_c-12" value="mongo:latest" style="shadow=0;dashed=0;html=1;strokeColor=none;labelPosition=center;verticalLabelPosition=bottom;verticalAlign=top;outlineConnect=0;align=center;shape=mxgraph.office.databases.database;fillColor=#7FBA42;" parent="1" vertex="1">
          <mxGeometry x="916.25" y="675" width="23.63" height="30" as="geometry" />
        </mxCell>
        <mxCell id="1_Ex-PggShJAfTCzqo_c-13" value="mysql:latest" style="shadow=0;dashed=0;html=1;strokeColor=none;labelPosition=center;verticalLabelPosition=bottom;verticalAlign=top;outlineConnect=0;align=center;shape=mxgraph.office.databases.database;fillColor=#2072B8;" parent="1" vertex="1">
          <mxGeometry x="310" y="670.5" width="21.75" height="29.5" as="geometry" />
        </mxCell>
        <mxCell id="1_Ex-PggShJAfTCzqo_c-16" value="driver-service" style="rounded=1;whiteSpace=wrap;html=1;fillColor=#d5e8d4;strokeColor=#82b366;" parent="1" vertex="1">
          <mxGeometry x="591.62" y="494.5" width="80" height="30" as="geometry" />
        </mxCell>
        <mxCell id="1_Ex-PggShJAfTCzqo_c-17" value="" style="ellipse;whiteSpace=wrap;html=1;aspect=fixed;strokeWidth=1;fillColor=#f5f5f5;strokeColor=#666666;fontColor=#333333;" parent="1" vertex="1">
          <mxGeometry x="613.12" y="444.5" width="40" height="40" as="geometry" />
        </mxCell>
        <mxCell id="1_Ex-PggShJAfTCzqo_c-18" value="driver-service" style="rounded=1;whiteSpace=wrap;html=1;fillColor=#f5f5f5;strokeColor=#666666;fontColor=#333333;" parent="1" vertex="1">
          <mxGeometry x="521.12" y="464.5" width="220" height="20" as="geometry" />
        </mxCell>
        <mxCell id="5B1q5VFgwYJrEZwWFQ1C-27" style="edgeStyle=orthogonalEdgeStyle;rounded=0;orthogonalLoop=1;jettySize=auto;html=1;entryX=0.5;entryY=0;entryDx=0;entryDy=0;" edge="1" parent="1" source="1_Ex-PggShJAfTCzqo_c-19" target="1_Ex-PggShJAfTCzqo_c-55">
          <mxGeometry relative="1" as="geometry" />
        </mxCell>
        <mxCell id="1_Ex-PggShJAfTCzqo_c-19" value="" style="pointerEvents=1;shadow=0;dashed=0;html=1;strokeColor=none;fillColor=#505050;labelPosition=center;verticalLabelPosition=bottom;verticalAlign=top;outlineConnect=0;align=center;shape=mxgraph.office.devices.cell_phone_android_standalone;" parent="1" vertex="1">
          <mxGeometry x="703.5" y="126" width="16" height="34" as="geometry" />
        </mxCell>
        <mxCell id="1_Ex-PggShJAfTCzqo_c-20" value="&lt;div&gt;ports:&lt;/div&gt;&lt;div&gt;8082:&lt;span style=&quot;background-color: initial;&quot;&gt;8082&lt;/span&gt;&lt;/div&gt;" style="text;html=1;strokeColor=none;fillColor=none;align=right;verticalAlign=middle;whiteSpace=wrap;rounded=0;" parent="1" vertex="1">
          <mxGeometry x="191" y="434.5" width="109" height="30" as="geometry" />
        </mxCell>
        <mxCell id="1_Ex-PggShJAfTCzqo_c-21" value="&lt;div&gt;ports:&lt;/div&gt;&lt;div&gt;8080:&lt;span style=&quot;background-color: initial;&quot;&gt;8080&lt;/span&gt;&lt;/div&gt;" style="text;html=1;strokeColor=none;fillColor=none;align=left;verticalAlign=middle;whiteSpace=wrap;rounded=0;" parent="1" vertex="1">
          <mxGeometry x="939.88" y="404.5" width="109" height="30" as="geometry" />
        </mxCell>
        <mxCell id="1_Ex-PggShJAfTCzqo_c-22" value="POD" style="rounded=0;whiteSpace=wrap;html=1;strokeColor=#6c8ebf;dashed=1;fillColor=#dae8fc;strokeWidth=2;" parent="1" vertex="1">
          <mxGeometry x="1630.38" y="677.5" width="48" height="25" as="geometry" />
        </mxCell>
        <mxCell id="1_Ex-PggShJAfTCzqo_c-23" value="service" style="rounded=1;whiteSpace=wrap;html=1;fillColor=#f5f5f5;strokeColor=#666666;fontColor=#333333;" parent="1" vertex="1">
          <mxGeometry x="1629.5" y="657.5" width="50" height="20" as="geometry" />
        </mxCell>
        <mxCell id="1_Ex-PggShJAfTCzqo_c-24" value="" style="ellipse;whiteSpace=wrap;html=1;aspect=fixed;strokeWidth=1;fillColor=#f5f5f5;strokeColor=#666666;fontColor=#333333;" parent="1" vertex="1">
          <mxGeometry x="299.88" y="620.5" width="40" height="40" as="geometry" />
        </mxCell>
        <mxCell id="1_Ex-PggShJAfTCzqo_c-25" value="mysql-team" style="rounded=1;whiteSpace=wrap;html=1;fillColor=#f5f5f5;strokeColor=#666666;fontColor=#333333;" parent="1" vertex="1">
          <mxGeometry x="219.88" y="640.5" width="200.12" height="20" as="geometry" />
        </mxCell>
        <mxCell id="1_Ex-PggShJAfTCzqo_c-26" value="&lt;div&gt;&lt;span&gt;ports:&amp;nbsp;&lt;/span&gt;&lt;br&gt;&lt;/div&gt;3307:3306" style="text;html=1;strokeColor=none;fillColor=none;align=right;verticalAlign=middle;whiteSpace=wrap;rounded=0;" parent="1" vertex="1">
          <mxGeometry x="171" y="610.5" width="109" height="30" as="geometry" />
        </mxCell>
        <mxCell id="1_Ex-PggShJAfTCzqo_c-27" value="" style="endArrow=classic;startArrow=classic;html=1;exitX=0.5;exitY=1;exitDx=0;exitDy=0;entryX=0.5;entryY=0;entryDx=0;entryDy=0;" parent="1" source="1_Ex-PggShJAfTCzqo_c-7" target="1_Ex-PggShJAfTCzqo_c-24" edge="1">
          <mxGeometry width="50" height="50" relative="1" as="geometry">
            <mxPoint x="590" y="534.5" as="sourcePoint" />
            <mxPoint x="610" y="564.5" as="targetPoint" />
          </mxGeometry>
        </mxCell>
        <mxCell id="1_Ex-PggShJAfTCzqo_c-28" value="" style="ellipse;whiteSpace=wrap;html=1;aspect=fixed;strokeWidth=1;fillColor=#f5f5f5;strokeColor=#666666;fontColor=#333333;" parent="1" vertex="1">
          <mxGeometry x="910" y="625" width="40" height="40" as="geometry" />
        </mxCell>
        <mxCell id="1_Ex-PggShJAfTCzqo_c-29" value="mongo-results" style="rounded=1;whiteSpace=wrap;html=1;fillColor=#f5f5f5;strokeColor=#666666;fontColor=#333333;" parent="1" vertex="1">
          <mxGeometry x="830" y="645" width="200.12" height="20" as="geometry" />
        </mxCell>
        <mxCell id="1_Ex-PggShJAfTCzqo_c-30" value="&lt;div&gt;&lt;span&gt;ports:&amp;nbsp;&lt;/span&gt;&lt;br&gt;&lt;/div&gt;27017:27017" style="text;html=1;strokeColor=none;fillColor=none;align=right;verticalAlign=middle;whiteSpace=wrap;rounded=0;" parent="1" vertex="1">
          <mxGeometry x="930.12" y="613" width="109" height="30" as="geometry" />
        </mxCell>
        <mxCell id="1_Ex-PggShJAfTCzqo_c-31" value="" style="endArrow=classic;startArrow=classic;html=1;exitX=0.5;exitY=1;exitDx=0;exitDy=0;entryX=0.5;entryY=0;entryDx=0;entryDy=0;" parent="1" source="1_Ex-PggShJAfTCzqo_c-4" target="1_Ex-PggShJAfTCzqo_c-28" edge="1">
          <mxGeometry width="50" height="50" relative="1" as="geometry">
            <mxPoint x="650" y="550" as="sourcePoint" />
            <mxPoint x="649.8800000000001" y="578" as="targetPoint" />
          </mxGeometry>
        </mxCell>
        <mxCell id="1_Ex-PggShJAfTCzqo_c-32" value="&lt;div&gt;&lt;span style=&quot;background-color: initial;&quot;&gt;ports: 8081:&lt;/span&gt;&lt;span style=&quot;background-color: initial;&quot;&gt;8081&lt;/span&gt;&lt;br&gt;&lt;/div&gt;" style="text;html=1;strokeColor=none;fillColor=none;align=right;verticalAlign=middle;whiteSpace=wrap;rounded=0;" parent="1" vertex="1">
          <mxGeometry x="420" y="444.5" width="178" height="20" as="geometry" />
        </mxCell>
        <mxCell id="1_Ex-PggShJAfTCzqo_c-36" value="mysql_team_data" style="shape=cylinder3;whiteSpace=wrap;html=1;boundedLbl=1;backgroundOutline=1;size=5;verticalAlign=top;labelPosition=center;verticalLabelPosition=bottom;align=center;fillColor=#ffe6cc;strokeColor=#d79b00;" parent="1" vertex="1">
          <mxGeometry x="300.87" y="789" width="40" height="25" as="geometry" />
        </mxCell>
        <mxCell id="1_Ex-PggShJAfTCzqo_c-38" value="mongodb_results_data" style="shape=cylinder3;whiteSpace=wrap;html=1;boundedLbl=1;backgroundOutline=1;size=5;verticalAlign=top;labelPosition=center;verticalLabelPosition=bottom;align=center;fillColor=#ffe6cc;strokeColor=#d79b00;" parent="1" vertex="1">
          <mxGeometry x="910.12" y="785" width="40" height="25" as="geometry" />
        </mxCell>
        <mxCell id="1_Ex-PggShJAfTCzqo_c-39" value="container" style="rounded=1;whiteSpace=wrap;html=1;fillColor=#d5e8d4;strokeColor=#82b366;" parent="1" vertex="1">
          <mxGeometry x="1561" y="679.5" width="59.5" height="23" as="geometry" />
        </mxCell>
        <mxCell id="1_Ex-PggShJAfTCzqo_c-40" value="volume" style="shape=cylinder3;whiteSpace=wrap;html=1;boundedLbl=1;backgroundOutline=1;size=5;verticalAlign=top;labelPosition=center;verticalLabelPosition=bottom;align=center;fillColor=#ffe6cc;strokeColor=#d79b00;" parent="1" vertex="1">
          <mxGeometry x="1570.75" y="630.5" width="40" height="25" as="geometry" />
        </mxCell>
        <mxCell id="1_Ex-PggShJAfTCzqo_c-41" value="&lt;div&gt;&lt;b&gt;&amp;nbsp;api-gateway:&lt;/b&gt;&lt;/div&gt;&lt;div&gt;&amp;nbsp; depends_on:&lt;/div&gt;&lt;div&gt;&amp;nbsp; &amp;nbsp; - product-service&lt;/div&gt;&lt;div&gt;&amp;nbsp; &amp;nbsp; - order-service&lt;/div&gt;&lt;div&gt;&lt;span style=&quot;background-color: rgb(213, 232, 212);&quot;&gt;&amp;nbsp; image: miverboven/ede-api-gateway&lt;/span&gt;&lt;/div&gt;&lt;div&gt;&amp;nbsp; ports:&lt;/div&gt;&lt;div&gt;&amp;nbsp; &amp;nbsp; - 8083:8083&lt;/div&gt;&lt;div&gt;&amp;nbsp; links:&lt;/div&gt;&lt;div&gt;&amp;nbsp; &amp;nbsp; - product-service&lt;/div&gt;&lt;div&gt;&amp;nbsp; &amp;nbsp; - order-service&lt;/div&gt;&lt;div&gt;&amp;nbsp;&amp;nbsp;environment:&lt;br&gt;&lt;/div&gt;&lt;div&gt;&amp;nbsp; &amp;nbsp;PRODUCT_SERVICE_BASEURL: product-service:8080&lt;/div&gt;&lt;div&gt;&amp;nbsp; &amp;nbsp;ORDER_SERVICE_BASEURL: order-service:8081&lt;/div&gt;" style="text;html=1;align=left;verticalAlign=middle;resizable=0;points=[];autosize=1;strokeColor=#666666;fillColor=#f5f5f5;fontColor=#333333;" parent="1" vertex="1">
          <mxGeometry x="1349" y="114.5" width="330" height="200" as="geometry" />
        </mxCell>
        <mxCell id="1_Ex-PggShJAfTCzqo_c-42" value="" style="rounded=0;whiteSpace=wrap;html=1;strokeColor=#6c8ebf;dashed=1;strokeWidth=2;fillColor=#dae8fc;" parent="1" vertex="1">
          <mxGeometry x="583.62" y="660.5" width="100" height="70" as="geometry" />
        </mxCell>
        <mxCell id="1_Ex-PggShJAfTCzqo_c-43" value="mysql:latest" style="shadow=0;dashed=0;html=1;strokeColor=none;labelPosition=center;verticalLabelPosition=bottom;verticalAlign=top;outlineConnect=0;align=center;shape=mxgraph.office.databases.database;fillColor=#2072B8;" parent="1" vertex="1">
          <mxGeometry x="623.62" y="670.5" width="21.75" height="29.5" as="geometry" />
        </mxCell>
        <mxCell id="1_Ex-PggShJAfTCzqo_c-44" style="edgeStyle=orthogonalEdgeStyle;rounded=0;orthogonalLoop=1;jettySize=auto;html=1;exitX=0.5;exitY=0;exitDx=0;exitDy=0;entryX=0.5;entryY=1;entryDx=0;entryDy=0;startArrow=classic;startFill=1;" parent="1" source="1_Ex-PggShJAfTCzqo_c-45" target="1_Ex-PggShJAfTCzqo_c-3" edge="1">
          <mxGeometry relative="1" as="geometry" />
        </mxCell>
        <mxCell id="1_Ex-PggShJAfTCzqo_c-45" value="" style="ellipse;whiteSpace=wrap;html=1;aspect=fixed;strokeWidth=1;fillColor=#f5f5f5;strokeColor=#666666;fontColor=#333333;" parent="1" vertex="1">
          <mxGeometry x="613.5" y="620.5" width="40" height="40" as="geometry" />
        </mxCell>
        <mxCell id="1_Ex-PggShJAfTCzqo_c-46" value="mysql-driver" style="rounded=1;whiteSpace=wrap;html=1;fillColor=#f5f5f5;strokeColor=#666666;fontColor=#333333;" parent="1" vertex="1">
          <mxGeometry x="533.5" y="640.5" width="200.12" height="20" as="geometry" />
        </mxCell>
        <mxCell id="1_Ex-PggShJAfTCzqo_c-47" value="&lt;div&gt;&lt;span&gt;ports:&amp;nbsp;&lt;/span&gt;&lt;br&gt;&lt;/div&gt;3306:3306" style="text;html=1;strokeColor=none;fillColor=none;align=right;verticalAlign=middle;whiteSpace=wrap;rounded=0;" parent="1" vertex="1">
          <mxGeometry x="500" y="605" width="109" height="30" as="geometry" />
        </mxCell>
        <mxCell id="1_Ex-PggShJAfTCzqo_c-48" style="edgeStyle=orthogonalEdgeStyle;rounded=0;orthogonalLoop=1;jettySize=auto;html=1;entryX=0.5;entryY=1;entryDx=0;entryDy=0;startArrow=classic;startFill=1;" parent="1" source="1_Ex-PggShJAfTCzqo_c-50" target="1_Ex-PggShJAfTCzqo_c-42" edge="1">
          <mxGeometry relative="1" as="geometry" />
        </mxCell>
        <mxCell id="1_Ex-PggShJAfTCzqo_c-49" value="/var/lib/mysql" style="edgeLabel;html=1;align=center;verticalAlign=middle;resizable=0;points=[];" parent="1_Ex-PggShJAfTCzqo_c-48" vertex="1" connectable="0">
          <mxGeometry x="-0.3395" y="-1" relative="1" as="geometry">
            <mxPoint as="offset" />
          </mxGeometry>
        </mxCell>
        <mxCell id="1_Ex-PggShJAfTCzqo_c-50" value="mysql_driver_data" style="shape=cylinder3;whiteSpace=wrap;html=1;boundedLbl=1;backgroundOutline=1;size=5;verticalAlign=top;labelPosition=center;verticalLabelPosition=bottom;align=center;fillColor=#ffe6cc;strokeColor=#d79b00;" parent="1" vertex="1">
          <mxGeometry x="613.5" y="786.5" width="40" height="25" as="geometry" />
        </mxCell>
        <mxCell id="5B1q5VFgwYJrEZwWFQ1C-31" style="edgeStyle=orthogonalEdgeStyle;rounded=0;orthogonalLoop=1;jettySize=auto;html=1;exitX=1;exitY=1;exitDx=0;exitDy=0;entryX=0.5;entryY=0;entryDx=0;entryDy=0;" edge="1" parent="1" source="1_Ex-PggShJAfTCzqo_c-51" target="1_Ex-PggShJAfTCzqo_c-1">
          <mxGeometry relative="1" as="geometry">
            <Array as="points">
              <mxPoint x="930" y="315" />
            </Array>
          </mxGeometry>
        </mxCell>
        <mxCell id="1_Ex-PggShJAfTCzqo_c-51" value="" style="rounded=0;whiteSpace=wrap;html=1;strokeColor=#6c8ebf;dashed=1;strokeWidth=2;fillColor=#dae8fc;" parent="1" vertex="1">
          <mxGeometry x="505.3800000000001" y="264.5" width="420" height="50" as="geometry" />
        </mxCell>
        <mxCell id="5B1q5VFgwYJrEZwWFQ1C-29" style="edgeStyle=orthogonalEdgeStyle;rounded=0;orthogonalLoop=1;jettySize=auto;html=1;entryX=0.5;entryY=0;entryDx=0;entryDy=0;" edge="1" parent="1" source="1_Ex-PggShJAfTCzqo_c-54" target="1_Ex-PggShJAfTCzqo_c-2">
          <mxGeometry relative="1" as="geometry" />
        </mxCell>
        <mxCell id="5B1q5VFgwYJrEZwWFQ1C-32" style="edgeStyle=orthogonalEdgeStyle;rounded=0;orthogonalLoop=1;jettySize=auto;html=1;entryX=0.5;entryY=0;entryDx=0;entryDy=0;" edge="1" parent="1" source="1_Ex-PggShJAfTCzqo_c-54" target="5B1q5VFgwYJrEZwWFQ1C-13">
          <mxGeometry relative="1" as="geometry" />
        </mxCell>
        <mxCell id="1_Ex-PggShJAfTCzqo_c-54" value="api-gateway" style="rounded=1;whiteSpace=wrap;html=1;fillColor=#d5e8d4;strokeColor=#82b366;" parent="1" vertex="1">
          <mxGeometry x="511.5" y="274.5" width="400" height="30" as="geometry" />
        </mxCell>
        <mxCell id="1_Ex-PggShJAfTCzqo_c-55" value="" style="ellipse;whiteSpace=wrap;html=1;aspect=fixed;strokeWidth=1;fillColor=#f5f5f5;strokeColor=#666666;fontColor=#333333;" parent="1" vertex="1">
          <mxGeometry x="691.5" y="224.5" width="40" height="40" as="geometry" />
        </mxCell>
        <mxCell id="1_Ex-PggShJAfTCzqo_c-56" value="api-gateway" style="rounded=1;whiteSpace=wrap;html=1;fillColor=#f5f5f5;strokeColor=#666666;fontColor=#333333;" parent="1" vertex="1">
          <mxGeometry x="419.5" y="244.5" width="580" height="20" as="geometry" />
        </mxCell>
        <mxCell id="1_Ex-PggShJAfTCzqo_c-57" value="&lt;div&gt;external port: auto-generated&lt;/div&gt;&lt;div&gt;ports: 8084:&lt;span style=&quot;background-color: initial;&quot;&gt;8084&lt;/span&gt;&lt;/div&gt;" style="text;html=1;strokeColor=none;fillColor=none;align=right;verticalAlign=middle;whiteSpace=wrap;rounded=0;" parent="1" vertex="1">
          <mxGeometry x="490" y="146" width="178" height="30" as="geometry" />
        </mxCell>
        <mxCell id="1_Ex-PggShJAfTCzqo_c-59" value="ENDPOINTS&lt;div&gt;&lt;b&gt;Team:&lt;/b&gt;&lt;/div&gt;&lt;div&gt;GET /teams -&amp;gt; get all teams&lt;/div&gt;&lt;div&gt;POST /team (AUTH) -&amp;gt; create new team&lt;/div&gt;&lt;div&gt;PUT /team/(id) (AUTH) -&amp;gt; update existing team&lt;/div&gt;&lt;div&gt;&lt;br&gt;&lt;/div&gt;&lt;div&gt;&lt;b&gt;Driver&lt;/b&gt;&lt;/div&gt;&lt;div&gt;GET /drivers -&amp;gt; get all drivers&lt;/div&gt;&lt;div&gt;POST /driver (AUTH) -&amp;gt; create new driver&lt;/div&gt;&lt;div&gt;PUT /driver/(id) (AUTH) -&amp;gt; update existing driver&lt;/div&gt;&lt;div&gt;DELETE /driver/(id) (AUTH) -&amp;gt; delete existing driver&lt;/div&gt;&lt;div&gt;&lt;br&gt;&lt;/div&gt;&lt;div&gt;&lt;b&gt;Track&lt;/b&gt;&lt;/div&gt;&lt;div&gt;&lt;div&gt;GET /tracks-&amp;gt; get all tracks&lt;/div&gt;&lt;div&gt;POST /track (AUTH) -&amp;gt; create new track&lt;/div&gt;&lt;/div&gt;&lt;div&gt;&lt;br&gt;&lt;/div&gt;&lt;div&gt;&lt;b&gt;Results&lt;/b&gt;&lt;/div&gt;&lt;div&gt;&lt;div&gt;GET /result/date-&amp;gt; get result from all drivers in a race on a certain date&lt;/div&gt;&lt;div&gt;POST /driver (AUTH) -&amp;gt; create new driver&lt;/div&gt;&lt;/div&gt;" style="text;html=1;strokeColor=none;fillColor=none;align=left;verticalAlign=middle;whiteSpace=wrap;rounded=0;" parent="1" vertex="1">
          <mxGeometry x="9.999999999999998" y="10" width="384.12" height="290" as="geometry" />
        </mxCell>
        <mxCell id="5B1q5VFgwYJrEZwWFQ1C-4" style="edgeStyle=orthogonalEdgeStyle;rounded=0;orthogonalLoop=1;jettySize=auto;html=1;exitX=0.5;exitY=1;exitDx=0;exitDy=0;entryX=0.5;entryY=0;entryDx=0;entryDy=0;entryPerimeter=0;startArrow=classic;startFill=1;" edge="1" parent="1" source="1_Ex-PggShJAfTCzqo_c-5" target="1_Ex-PggShJAfTCzqo_c-38">
          <mxGeometry relative="1" as="geometry" />
        </mxCell>
        <mxCell id="5B1q5VFgwYJrEZwWFQ1C-10" style="edgeStyle=orthogonalEdgeStyle;rounded=0;orthogonalLoop=1;jettySize=auto;html=1;exitX=0.5;exitY=1;exitDx=0;exitDy=0;entryX=0.5;entryY=0;entryDx=0;entryDy=0;entryPerimeter=0;startArrow=classic;startFill=1;" edge="1" parent="1" source="1_Ex-PggShJAfTCzqo_c-6" target="1_Ex-PggShJAfTCzqo_c-36">
          <mxGeometry relative="1" as="geometry" />
        </mxCell>
        <mxCell id="5B1q5VFgwYJrEZwWFQ1C-11" value="" style="rounded=0;whiteSpace=wrap;html=1;strokeColor=#6c8ebf;dashed=1;strokeWidth=2;fillColor=#dae8fc;" vertex="1" parent="1">
          <mxGeometry x="1191.62" y="490" width="103" height="50" as="geometry" />
        </mxCell>
        <mxCell id="5B1q5VFgwYJrEZwWFQ1C-33" style="edgeStyle=orthogonalEdgeStyle;rounded=0;orthogonalLoop=1;jettySize=auto;html=1;dashed=1;entryX=1;entryY=0;entryDx=0;entryDy=0;startArrow=classic;startFill=1;endArrow=none;endFill=0;" edge="1" parent="1" source="5B1q5VFgwYJrEZwWFQ1C-12" target="1_Ex-PggShJAfTCzqo_c-1">
          <mxGeometry relative="1" as="geometry">
            <mxPoint x="1040" y="560" as="targetPoint" />
            <Array as="points">
              <mxPoint x="1100" y="515" />
              <mxPoint x="1100" y="456" />
            </Array>
          </mxGeometry>
        </mxCell>
        <mxCell id="5B1q5VFgwYJrEZwWFQ1C-12" value="track-service" style="rounded=1;whiteSpace=wrap;html=1;fillColor=#d5e8d4;strokeColor=#82b366;" vertex="1" parent="1">
          <mxGeometry x="1201.62" y="500" width="80" height="30" as="geometry" />
        </mxCell>
        <mxCell id="5B1q5VFgwYJrEZwWFQ1C-13" value="" style="ellipse;whiteSpace=wrap;html=1;aspect=fixed;strokeWidth=1;fillColor=#f5f5f5;strokeColor=#666666;fontColor=#333333;" vertex="1" parent="1">
          <mxGeometry x="1223.12" y="450" width="40" height="40" as="geometry" />
        </mxCell>
        <mxCell id="5B1q5VFgwYJrEZwWFQ1C-14" value="track-service" style="rounded=1;whiteSpace=wrap;html=1;fillColor=#f5f5f5;strokeColor=#666666;fontColor=#333333;" vertex="1" parent="1">
          <mxGeometry x="1131.12" y="470" width="220" height="20" as="geometry" />
        </mxCell>
        <mxCell id="5B1q5VFgwYJrEZwWFQ1C-15" value="&lt;div&gt;&lt;span style=&quot;background-color: initial;&quot;&gt;ports: 8083:&lt;/span&gt;&lt;span style=&quot;background-color: initial;&quot;&gt;8083&lt;/span&gt;&lt;br&gt;&lt;/div&gt;" style="text;html=1;strokeColor=none;fillColor=none;align=right;verticalAlign=middle;whiteSpace=wrap;rounded=0;" vertex="1" parent="1">
          <mxGeometry x="1030" y="450" width="178" height="20" as="geometry" />
        </mxCell>
        <mxCell id="5B1q5VFgwYJrEZwWFQ1C-16" value="" style="rounded=0;whiteSpace=wrap;html=1;strokeColor=#6c8ebf;dashed=1;strokeWidth=2;fillColor=#dae8fc;" vertex="1" parent="1">
          <mxGeometry x="1193.62" y="666" width="100" height="70" as="geometry" />
        </mxCell>
        <mxCell id="5B1q5VFgwYJrEZwWFQ1C-17" value="mysql:latest" style="shadow=0;dashed=0;html=1;strokeColor=none;labelPosition=center;verticalLabelPosition=bottom;verticalAlign=top;outlineConnect=0;align=center;shape=mxgraph.office.databases.database;fillColor=#2072B8;" vertex="1" parent="1">
          <mxGeometry x="1233.62" y="676" width="21.75" height="29.5" as="geometry" />
        </mxCell>
        <mxCell id="5B1q5VFgwYJrEZwWFQ1C-18" style="edgeStyle=orthogonalEdgeStyle;rounded=0;orthogonalLoop=1;jettySize=auto;html=1;exitX=0.5;exitY=0;exitDx=0;exitDy=0;entryX=0.5;entryY=1;entryDx=0;entryDy=0;startArrow=classic;startFill=1;" edge="1" parent="1" source="5B1q5VFgwYJrEZwWFQ1C-19" target="5B1q5VFgwYJrEZwWFQ1C-11">
          <mxGeometry relative="1" as="geometry" />
        </mxCell>
        <mxCell id="5B1q5VFgwYJrEZwWFQ1C-19" value="" style="ellipse;whiteSpace=wrap;html=1;aspect=fixed;strokeWidth=1;fillColor=#f5f5f5;strokeColor=#666666;fontColor=#333333;" vertex="1" parent="1">
          <mxGeometry x="1223.5" y="626" width="40" height="40" as="geometry" />
        </mxCell>
        <mxCell id="5B1q5VFgwYJrEZwWFQ1C-20" value="mysql-track" style="rounded=1;whiteSpace=wrap;html=1;fillColor=#f5f5f5;strokeColor=#666666;fontColor=#333333;" vertex="1" parent="1">
          <mxGeometry x="1143.5" y="646" width="200.12" height="20" as="geometry" />
        </mxCell>
        <mxCell id="5B1q5VFgwYJrEZwWFQ1C-21" value="&lt;div&gt;&lt;span&gt;ports:&amp;nbsp;&lt;/span&gt;&lt;br&gt;&lt;/div&gt;3308:3306" style="text;html=1;strokeColor=none;fillColor=none;align=right;verticalAlign=middle;whiteSpace=wrap;rounded=0;" vertex="1" parent="1">
          <mxGeometry x="1110" y="610.5" width="109" height="30" as="geometry" />
        </mxCell>
        <mxCell id="5B1q5VFgwYJrEZwWFQ1C-22" style="edgeStyle=orthogonalEdgeStyle;rounded=0;orthogonalLoop=1;jettySize=auto;html=1;entryX=0.5;entryY=1;entryDx=0;entryDy=0;startArrow=classic;startFill=1;" edge="1" parent="1" source="5B1q5VFgwYJrEZwWFQ1C-24" target="5B1q5VFgwYJrEZwWFQ1C-16">
          <mxGeometry relative="1" as="geometry" />
        </mxCell>
        <mxCell id="5B1q5VFgwYJrEZwWFQ1C-23" value="/var/lib/mysql" style="edgeLabel;html=1;align=center;verticalAlign=middle;resizable=0;points=[];" vertex="1" connectable="0" parent="5B1q5VFgwYJrEZwWFQ1C-22">
          <mxGeometry x="-0.3395" y="-1" relative="1" as="geometry">
            <mxPoint x="-3" y="-3" as="offset" />
          </mxGeometry>
        </mxCell>
        <mxCell id="5B1q5VFgwYJrEZwWFQ1C-24" value="mysql_track_data" style="shape=cylinder3;whiteSpace=wrap;html=1;boundedLbl=1;backgroundOutline=1;size=5;verticalAlign=top;labelPosition=center;verticalLabelPosition=bottom;align=center;fillColor=#ffe6cc;strokeColor=#d79b00;" vertex="1" parent="1">
          <mxGeometry x="1223.5" y="792" width="40" height="25" as="geometry" />
        </mxCell>
        <mxCell id="5B1q5VFgwYJrEZwWFQ1C-25" value="/var/lib/mysql" style="edgeLabel;html=1;align=center;verticalAlign=middle;resizable=0;points=[];" vertex="1" connectable="0" parent="1">
          <mxGeometry x="320.88" y="762.5" as="geometry" />
        </mxCell>
        <mxCell id="5B1q5VFgwYJrEZwWFQ1C-26" value="/data/db" style="edgeLabel;html=1;align=center;verticalAlign=middle;resizable=0;points=[];" vertex="1" connectable="0" parent="1">
          <mxGeometry x="930.12" y="760" as="geometry" />
        </mxCell>
        <mxCell id="5B1q5VFgwYJrEZwWFQ1C-30" style="edgeStyle=orthogonalEdgeStyle;rounded=0;orthogonalLoop=1;jettySize=auto;html=1;entryX=0.5;entryY=0;entryDx=0;entryDy=0;exitX=0.302;exitY=0.93;exitDx=0;exitDy=0;exitPerimeter=0;" edge="1" parent="1" source="1_Ex-PggShJAfTCzqo_c-51" target="1_Ex-PggShJAfTCzqo_c-17">
          <mxGeometry relative="1" as="geometry" />
        </mxCell>
        <mxCell id="5B1q5VFgwYJrEZwWFQ1C-35" style="edgeStyle=orthogonalEdgeStyle;rounded=0;orthogonalLoop=1;jettySize=auto;html=1;entryX=0.25;entryY=0;entryDx=0;entryDy=0;entryPerimeter=0;dashed=1;startArrow=classic;startFill=1;endArrow=none;endFill=0;" edge="1" parent="1" source="1_Ex-PggShJAfTCzqo_c-7" target="1_Ex-PggShJAfTCzqo_c-1">
          <mxGeometry relative="1" as="geometry">
            <Array as="points">
              <mxPoint x="460" y="510" />
              <mxPoint x="460" y="410" />
              <mxPoint x="920" y="410" />
            </Array>
          </mxGeometry>
        </mxCell>
      </root>
    </mxGraphModel>
  </diagram>
</mxfile>
